<?xml version="1.0" encoding="UTF-8" standalone="no"?>
<!DOCTYPE svg PUBLIC "-//W3C//DTD SVG 1.1//EN" "http://www.w3.org/Graphics/SVG/1.1/DTD/svg11.dtd">
<svg width="100%" height="100%" viewBox="0 0 800 600" version="1.1" xmlns="http://www.w3.org/2000/svg" xmlns:xlink="http://www.w3.org/1999/xlink" xml:space="preserve" xmlns:serif="http://www.serif.com/" style="fill-rule:evenodd;clip-rule:evenodd;stroke-linejoin:round;stroke-miterlimit:2;">
    <g transform="matrix(1,0,0,1,0,-3569)">
        <g id="Hatcher" transform="matrix(1,0,0,0.938836,0,217.624)">
            <rect x="0" y="3569.71" width="800" height="639.089" style="fill:none;"/>
            <g transform="matrix(0.873332,0,0,0.930228,309.193,-121.245)">
                <path d="M98.004,4086.39C109.18,4088.07 118.921,4091.19 128.564,4096.13C134.795,4099.35 137.762,4101.57 144.685,4108.2C154.971,4118.04 161.301,4126.64 167.235,4138.81C175.888,4156.51 179.251,4172.19 183.504,4214.22C185.432,4233.06 187.954,4267.23 188.498,4281.23C188.647,4285.28 188.993,4291.96 189.29,4296.06C189.834,4304.76 190.476,4303.58 182.812,4307.29C172.18,4312.43 161.943,4315.99 148.443,4319.3C131.927,4323.36 121.246,4324.64 104.927,4324.69L93.059,4324.74L93.158,4319.06C93.158,4315.94 93.454,4308.67 93.751,4302.98C95.235,4275.44 94.938,4240.68 93.009,4221.39C91.921,4210.31 89.795,4196.86 88.608,4193.9C88.361,4193.25 89.498,4192.71 94.394,4191.03C103.344,4187.91 111.108,4184.01 112.295,4182.08C114.421,4178.42 110.614,4173.18 105.768,4173.18C104.927,4173.18 102.405,4174.07 100.081,4175.11C89.004,4180.2 66.8,4186.18 53.993,4187.52C45.141,4188.46 31.394,4187.91 21.85,4186.18C16.658,4185.24 7.361,4181.73 -0.403,4177.73C-9.353,4173.08 -14.842,4166.9 -16.474,4159.58C-17.364,4155.62 -17.117,4147.71 -15.98,4143.26C-14.744,4138.36 -11.282,4131.24 -8.117,4127.09C5.976,4108.54 35.053,4092.47 64.872,4086.84C74.366,4085.06 87.817,4084.86 98.004,4086.39ZM44.449,4114.82C39.702,4117.74 39.702,4124.76 44.449,4127.68C49.147,4130.5 55.229,4126.79 55.229,4121.15C55.229,4115.72 48.998,4112.06 44.449,4114.82ZM10.921,4110.08C5.778,4112.3 5.383,4119.27 10.229,4121.75C13.74,4123.53 17.3,4122.69 19.13,4119.62C22.592,4113.98 16.954,4107.46 10.921,4110.08Z" style="fill:rgb(119,178,85);"/>
            </g>
            <g transform="matrix(1,0,0,1.06515,0,-231.802)">
                <clipPath id="_clip1">
                    <ellipse cx="400" cy="3863.59" rx="145.19" ry="203.646"/>
                </clipPath>
                <g clip-path="url(#_clip1)">
                    <path d="M218.679,3796.5L302.062,3863.59L388.537,3837.42L433.452,3863.59L497.116,3821.24L558.526,3863.59L590.241,4098.44L180.778,4097.18L218.679,3796.5Z" style="fill:rgb(62,62,62);"/>
                    <path d="M433.417,3862.41L496.562,3820.41C496.903,3820.18 497.347,3820.19 497.684,3820.42L559.094,3862.76C559.326,3862.92 559.479,3863.17 559.517,3863.45L591.232,4098.31C591.27,4098.59 591.183,4098.88 590.992,4099.1C590.802,4099.32 590.527,4099.44 590.237,4099.44L180.775,4098.18C180.488,4098.18 180.216,4098.05 180.027,4097.84C179.838,4097.62 179.75,4097.34 179.786,4097.05L217.687,3796.37C217.732,3796.01 217.969,3795.7 218.305,3795.57C218.641,3795.43 219.024,3795.49 219.306,3795.72L302.277,3862.47L388.247,3836.46C388.513,3836.38 388.8,3836.41 389.04,3836.55L433.417,3862.41ZM218.679,3796.5L302.062,3863.59L388.537,3837.42L433.452,3863.59L497.116,3821.24L558.526,3863.59L590.241,4098.44L180.778,4097.18L218.679,3796.5Z"/>
                </g>
            </g>
            <g transform="matrix(1.30188,0,0,1.3867,-120.753,3392.06)">
                <g transform="matrix(6.12323e-17,-1,1,6.12323e-17,-180.358,674.98)">
                    <path d="M242.683,362.405C192.29,362.405 151.377,437.801 151.377,530.668C151.377,623.535 192.29,698.931 242.683,698.931C227.565,659.67 215.291,597.79 215.291,530.668C215.291,463.546 227.565,401.666 242.683,362.405Z" style="fill:url(#_Linear2);"/>
                </g>
                <g transform="matrix(6.12323e-17,-1,1,6.12323e-17,-80.9781,674.98)">
                    <path d="M242.683,362.405C192.29,362.405 151.377,437.801 151.377,530.668C151.377,623.535 192.29,698.931 242.683,698.931C227.565,659.67 215.291,597.79 215.291,530.668C215.291,463.546 227.565,401.666 242.683,362.405Z" style="fill:url(#_Linear3);"/>
                </g>
                <g transform="matrix(0.143201,-0.989694,0.989694,0.143201,-181.291,568.88)">
                    <path d="M242.683,362.405C192.29,362.405 151.377,437.801 151.377,530.668C151.377,623.535 192.29,698.931 242.683,698.931C227.565,659.67 215.291,597.79 215.291,530.668C215.291,463.546 227.565,401.666 242.683,362.405Z" style="fill:url(#_Linear4);"/>
                </g>
                <g transform="matrix(-0.143201,-0.989694,-0.989694,0.143201,981.291,568.88)">
                    <path d="M242.683,362.405C192.29,362.405 151.377,437.801 151.377,530.668C151.377,623.535 192.29,698.931 242.683,698.931C227.565,659.67 215.291,597.79 215.291,530.668C215.291,463.546 227.565,401.666 242.683,362.405Z" style="fill:url(#_Linear5);"/>
                </g>
            </g>
        </g>
    </g>
    <defs>
        <linearGradient id="_Linear2" x1="0" y1="0" x2="1" y2="0" gradientUnits="userSpaceOnUse" gradientTransform="matrix(91.3065,-217.953,116.687,48.8834,151.377,580.358)"><stop offset="0" style="stop-color:rgb(34,193,195);stop-opacity:1"/><stop offset="1" style="stop-color:rgb(253,187,45);stop-opacity:1"/></linearGradient>
        <linearGradient id="_Linear3" x1="0" y1="0" x2="1" y2="0" gradientUnits="userSpaceOnUse" gradientTransform="matrix(91.3065,217.953,-116.687,48.8834,151.377,480.978)"><stop offset="0" style="stop-color:rgb(34,193,195);stop-opacity:1"/><stop offset="1" style="stop-color:rgb(253,187,45);stop-opacity:1"/></linearGradient>
        <linearGradient id="_Linear4" x1="0" y1="0" x2="1" y2="0" gradientUnits="userSpaceOnUse" gradientTransform="matrix(114.558,-206.926,110.783,61.3316,128.051,568.816)"><stop offset="0" style="stop-color:rgb(34,193,195);stop-opacity:1"/><stop offset="1" style="stop-color:rgb(253,187,45);stop-opacity:1"/></linearGradient>
        <linearGradient id="_Linear5" x1="0" y1="0" x2="1" y2="0" gradientUnits="userSpaceOnUse" gradientTransform="matrix(-77.4938,-216.772,116.055,-41.4884,239.208,699.434)"><stop offset="0" style="stop-color:rgb(253,187,45);stop-opacity:1"/><stop offset="1" style="stop-color:rgb(34,193,195);stop-opacity:1"/></linearGradient>
    </defs>
</svg>
